# xmcd CD database file
#
# Track frame offsets:
#	150
#	20958
#	44674
#	69210
#
# Disc length: 1197 seconds
#
# Revision: 0
# Processed by: cddbd v1.5PL3 Copyright (c) Steve Scherf et al.
# Submitted via: CDex 1.51
#
DISCID=3404ab04
DTITLE=ヴァニラ・H - ギャラクシーエンジェルA スペシャルCD5 〜ヴァニラVer.
DYEAR=2003
DGENRE=Anime
TTITLE0=勇気をちょーだい
TTITLE1=すぺしゃるドラマ 「エンジェル隊こぼれ話」 〜その5〜
TTITLE2=すぺしゃるドラマ〜ヴァニラ篇〜
TTITLE3=勇気をちょーだい(off vocal)
EXTD=YEAR: 2003
EXTT0=
EXTT1=
EXTT2=
EXTT3=
PLAYORDER=
